<svg xmlns="http://www.w3.org/2000/svg" width="16" height="16" fill="none">
    <path fill="#BEA69E"
        d="M10.5804 9.07966c0 1.42294-1.1575 2.58044-2.5804 2.58044s-2.57997-1.1575-2.57997-2.58044c0-1.4229 1.15707-2.58041 2.57997-2.58041 1.4229 0 2.5804 1.15795 2.5804 2.58041ZM16 5.4156v7.329c0 .9771-.7922 1.7692-1.7692 1.7692H1.76923C.792171 14.5138 0 13.7217 0 12.7446v-7.329c0-.97706.792171-1.76923 1.76923-1.76923h2.17615v-.61215c0-.85498.69265-1.54807 1.54807-1.54807h5.01315c.8554 0 1.548.69309 1.548 1.54807v.61171h2.1762C15.2078 3.64637 16 4.43854 16 5.4156Zm-4.0927 3.66406c0-2.15447-1.7528-3.90733-3.9073-3.90733-2.15403 0-3.90689 1.75286-3.90689 3.90733C4.09311 11.2341 5.84597 12.987 8 12.987c2.1545 0 3.9073-1.7529 3.9073-3.90734Z" />
</svg>